<svg width="99" height="66" viewBox="0 0 99 66" fill="none" xmlns="http://www.w3.org/2000/svg">
<mask id="mask0_213_12" style="mask-type:luminance" maskUnits="userSpaceOnUse" x="7" y="6" width="83" height="51">
<path d="M7.74149 6.59439H89.1113V56.4241H7.74149V6.59439Z" fill="white"/>
</mask>
<g mask="url(#mask0_213_12)">
<mask id="mask1_213_12" style="mask-type:luminance" maskUnits="userSpaceOnUse" x="7" y="6" width="83" height="51">
<path d="M80.8825 56.4239H15.9632C13.7807 56.4239 11.6899 55.575 10.1501 54.0597C8.60321 52.5444 7.74149 50.4819 7.74149 48.3422V14.6828C7.74149 10.2211 11.4215 6.60117 15.9632 6.60117H80.8825C83.0651 6.60117 85.1559 7.45002 86.6957 8.96532C88.2426 10.4806 89.1113 12.5431 89.1113 14.6828V48.3422C89.1113 52.804 85.4243 56.4239 80.8825 56.4239Z" fill="white"/>
</mask>
<g mask="url(#mask1_213_12)">
<path d="M80.8825 56.4241L15.9633 56.4241C13.7807 56.4241 11.6899 55.5752 10.1501 54.0599C8.60325 52.5446 7.74152 50.4821 7.74152 48.3424V14.683C7.74152 10.2213 11.4215 6.60137 15.9633 6.60137L80.8825 6.60137C83.0651 6.60137 85.1559 7.45022 86.6957 8.96553C88.2426 10.4808 89.1114 12.5433 89.1114 14.683V48.3424C89.1114 52.8042 85.4243 56.4241 80.8825 56.4241Z" stroke="white" stroke-width="3.99897"/>
</g>
</g>
<path d="M51.9644 16.5735H45.4802V33.8101C45.4802 34.8343 45.4802 35.7393 45.3955 36.6864C45.1906 39.1908 43.9898 40.7061 41.5954 40.7061C39.1514 40.7061 37.5834 39.4364 37.3362 35.6972L37.2514 34.3433H30.8096L30.8449 35.6972C31.0145 41.6532 34.193 45.4695 41.3058 45.4695C48.3691 45.4695 51.5547 41.9829 51.8443 37.0512C51.9644 35.122 51.9644 34.224 51.9644 32.9893V16.5735Z" fill="white"/>
<path d="M57.1213 19.4815H72.0462" stroke="white" stroke-width="2.03949"/>
<mask id="mask2_213_12" style="mask-type:luminance" maskUnits="userSpaceOnUse" x="60" y="37" width="9" height="9">
<path d="M60.0103 37.4267H68.5781V45.9362H60.0103V37.4267Z" fill="white"/>
</mask>
<g mask="url(#mask2_213_12)">
<mask id="mask3_213_12" style="mask-type:luminance" maskUnits="userSpaceOnUse" x="60" y="37" width="9" height="9">
<path d="M64.2977 37.4267C61.9315 37.4267 60.0103 39.3278 60.0103 41.6779C60.0103 44.0281 61.9315 45.9362 64.2977 45.9362C66.6569 45.9362 68.5781 44.0281 68.5781 41.6779C68.5781 39.3278 66.6569 37.4267 64.2977 37.4267Z" fill="white"/>
</mask>
<g mask="url(#mask3_213_12)">
<path d="M60.0103 37.4267H68.5781V45.9362H60.0103V37.4267Z" fill="white"/>
</g>
</g>
</svg>
